PathFileType   4   (X/Y/Z)
DataRate	CameraRate	NumFrames	NumMarkers	Units	OrigDataRate	OrigDataStartFrame	OrigNumFrames
120.0	120.0	5	37	mm	120.0	64	126
Frame#	Time	midhip	hip_r	hip_l	knee_r	knee_l	ankle_r	ankle_l	midasis	asis_r	asis_l	psis_r	psis_l	epicondLat_r	epicondLat_l	epicondMed_r	epicondMed_l	malleolusLat_r	malleolusLat_l	malleolusMedv_r	malleolusMedv_l	neck	subclavicle_r	subclavicle_l	sternalnotch	xyphoidprocess	thighwand_r	thighwand_l	upperleg1_r	upperleg1_l	upperleg2_r	upperleg2_l	shankwand_r	shankwand_l	lowerleg1_r	lowerleg1_l	toe_r	toe_l
 	 	X1	Y1	Z1	X2	Y2	Z2	X3	Y3	Z3	X4	Y4	Z4	X5	Y5	Z5	X6	Y6	Z6	X7	Y7	Z7	X8	Y8	Z8	X9	Y9	Z9	X10	Y10	Z10	X11	Y11	Z11	X12	Y12	Z12	X13	Y13	Z13	X14	Y14	Z14	X15	Y15	Z15	X16	Y16	Z16	X17	Y17	Z17	X18	Y18	Z18	X19	Y19	Z19	X20	Y20	Z20	X21	Y21	Z21	X22	Y22	Z22	X23	Y23	Z23	X24	Y24	Z24	X25	Y25	Z25	X26	Y26	Z26	X27	Y27	Z27	X28	Y28	Z28	X29	Y29	Z29	X30	Y30	Z30	X31	Y31	Z31	X32	Y32	Z32	X33	Y33	Z33	X34	Y34	Z34	X35	Y35	Z35	X36	Y36	Z36	X37	Y37	Z37

	64	0.67500	1902.036	872.935	-244.365	1906.321	859.665	-187.958	1891.133	856.455	-293.392	2085.546	488.007	-204.198	1793.116	453.683	-313.733	2121.314	70.135	-192.120	1509.474	139.352	-297.804	1975.609	955.361	-254.712	1990.397	958.486	-152.058	1960.821	952.236	-357.367	1781.714	980.045	-190.264	1769.386	980.841	-274.870	2098.583	491.763	-146.265	1790.403	457.339	-373.058	2066.203	498.839	-263.359	1804.250	450.640	-261.987	2122.714	71.352	-154.165	1502.968	143.258	-336.568	2118.414	74.082	-224.892	1521.549	148.104	-269.492	1823.271	1435.140	-213.760	1934.075	1359.785	-145.760	1913.431	1371.217	-301.146	1910.992	1366.743	-225.674	1951.372	1167.583	-252.513	2091.067	597.791	-62.066	1974.100	547.137	-341.834	2082.282	662.781	-132.100	1906.697	623.281	-367.779	2107.057	586.869	-159.371	1880.239	540.763	-364.023	2138.480	151.397	-92.359	1659.190	159.361	-309.064	2109.181	203.978	-152.261	1641.037	239.612	-314.249	2244.222	44.044	-216.979	1583.845	41.480	-287.099
	65	0.68333	1913.786	875.118	-244.182	1917.751	861.418	-186.495	1902.293	857.720	-291.873	2093.729	488.450	-204.685	1809.169	453.367	-315.104	2121.654	70.086	-192.276	1520.100	144.114	-299.290	1986.527	957.078	-253.828	2001.562	960.675	-151.335	1971.493	953.481	-356.322	1792.662	981.258	-189.946	1780.087	981.767	-274.563	2107.200	491.985	-146.838	1805.604	457.592	-374.347	2075.063	500.030	-263.653	1821.525	449.741	-263.574	2123.253	71.318	-154.330	1512.673	149.089	-337.765	2118.678	74.045	-224.942	1532.798	152.873	-271.140	1833.342	1436.290	-212.652	1944.154	1361.104	-144.513	1923.917	1372.795	-299.867	1921.278	1368.161	-224.444	1962.277	1169.168	-251.580	2100.914	598.375	-62.393	1989.127	548.573	-344.899	2092.454	663.496	-131.980	1920.781	624.133	-369.619	2116.670	587.508	-159.491	1895.285	541.216	-365.994	2140.830	150.989	-92.669	1669.907	161.695	-313.996	2112.266	204.167	-152.441	1653.530	242.423	-316.811	2244.691	43.529	-217.106	1586.574	41.540	-287.033
	66	0.69167	1924.628	876.495	-243.906	1929.049	863.260	-185.170	1913.217	859.159	-290.478	2101.285	488.877	-204.883	1825.823	453.010	-316.569	2121.808	70.066	-192.229	1531.817	148.669	-300.895	1997.267	958.917	-253.075	2012.650	962.901	-150.754	1981.883	954.932	-355.396	1803.561	982.602	-189.474	1790.638	982.848	-274.050	2114.868	492.080	-147.042	1821.274	457.788	-375.702	2083.441	500.426	-263.344	1839.186	448.667	-265.633	2123.568	71.299	-154.290	1523.546	154.694	-339.047	2118.749	74.160	-224.859	1544.932	157.261	-272.880	1843.321	1437.604	-211.663	1954.159	1362.593	-143.324	1934.311	1374.508	-298.610	1931.480	1369.731	-223.252	1973.091	1170.901	-250.646	2109.567	598.476	-62.318	2004.252	550.237	-348.352	2101.728	663.549	-131.415	1934.884	625.134	-371.581	2125.438	587.487	-158.957	1910.467	541.806	-368.268	2142.794	150.616	-92.740	1681.519	164.013	-318.888	2114.871	204.380	-152.384	1667.024	245.217	-319.636	2244.918	43.273	-217.201	1589.978	41.986	-286.906
	67	0.70000	1934.592	877.086	-243.442	1940.157	865.120	-184.039	1923.860	860.714	-289.263	2108.384	489.328	-204.897	1842.977	452.635	-318.072	2121.855	70.052	-192.024	1544.503	153.049	-302.573	2007.815	960.784	-252.490	2023.634	965.062	-150.350	1991.995	956.507	-354.631	1814.395	984.088	-188.848	1801.042	984.057	-273.312	2121.758	492.100	-146.985	1837.327	457.919	-377.067	2090.950	500.547	-262.863	1857.281	447.441	-267.600	2123.757	71.277	-154.091	1535.534	160.028	-340.403	2118.880	74.362	-224.676	1557.681	161.367	-274.564	1853.225	1438.961	-210.667	1964.125	1364.177	-142.225	1944.582	1376.308	-297.434	1941.600	1371.389	-222.139	1983.874	1172.736	-249.808	2117.116	598.199	-61.927	2019.369	552.091	-352.111	2110.416	663.207	-130.544	1948.769	626.167	-373.548	2133.386	586.942	-158.090	1925.570	542.406	-370.557	2144.528	150.263	-92.635	1693.924	166.266	-323.422	2117.194	204.609	-152.118	1681.149	247.867	-322.299	2244.971	43.124	-217.302	1594.282	42.946	-286.755
	68	0.70833	1943.936	877.211	-242.733	1951.036	866.948	-183.145	1934.211	862.329	-288.277	2115.093	489.772	-204.791	1860.514	452.306	-319.557	2121.870	70.029	-191.714	1557.980	157.334	-304.238	2018.174	962.612	-252.105	2034.490	967.091	-150.148	2001.858	958.133	-354.061	1825.132	985.716	-188.088	1811.316	985.372	-272.381	2128.038	492.072	-146.762	1853.690	458.021	-378.388	2097.420	500.595	-262.275	1875.971	446.441	-268.430	2123.902	71.243	-153.787	1548.513	165.093	-341.794	2118.924	74.517	-224.247	1570.931	165.548	-276.126	1863.010	1440.322	-209.706	1974.024	1365.821	-141.244	1954.753	1378.142	-296.373	1951.635	1373.086	-221.141	1994.662	1174.631	-249.066	2123.824	597.704	-61.371	2034.413	554.130	-356.023	2118.517	662.731	-129.549	1962.309	627.193	-375.504	2140.511	586.154	-157.096	1940.428	542.813	-372.403	2146.122	149.903	-92.412	1707.042	168.446	-327.290	2119.394	204.782	-151.658	1695.707	250.299	-324.666	2244.945	43.008	-217.383	1599.623	44.453	-286.614
